<?xml version="1.0" encoding="utf-8"?>
<!-- Generator: Adobe Illustrator 25.3.0, SVG Export Plug-In . SVG Version: 6.00 Build 0)  -->
<svg version="1.1" id="Ebene_1" xmlns="http://www.w3.org/2000/svg" xmlns:xlink="http://www.w3.org/1999/xlink" x="0px" y="0px"
	 viewBox="0 0 24 24" style="enable-background:new 0 0 24 24;" xml:space="preserve">
<style type="text/css">
	.st0{fill:none;stroke:#9CA3AF;stroke-width:1.5;}
</style>
<path class="st0" d="M8,16c0,1.9,0,2.8,0.6,3.4C9.2,20,10.1,20,12,20h4c1.9,0,2.8,0,3.4-0.6S20,17.9,20,16v-4c0-1.9,0-2.8-0.6-3.4
	C18.8,8,17.9,8,16,8"/>
<path class="st0" d="M8,16h4c1.9,0,2.8,0,3.4-0.6C16,14.8,16,13.9,16,12V8"/>
<path class="st0" d="M8,16c-1.9,0-2.8,0-3.4-0.6C4,14.8,4,13.9,4,12V8c0-1.9,0-2.8,0.6-3.4S6.1,4,8,4h4c1.9,0,2.8,0,3.4,0.6
	C16,5.2,16,6.1,16,8"/>
</svg>
