<?xml version="1.0" standalone="no"?><!DOCTYPE svg PUBLIC "-//W3C//DTD SVG 1.1//EN" "http://www.w3.org/Graphics/SVG/1.1/DTD/svg11.dtd"><svg viewBox="0 0 248 31" class="w-auto h-7 sm:h-8" version="1.1" xmlns="http://www.w3.org/2000/svg" xmlns:xlink="http://www.w3.org/1999/xlink" style="block-size:32px;height:32px;inline-size:256px;perspective-origin:128px 16px;transform-origin:128px 16px;width:256px;"><path fill-rule="evenodd" clip-rule="evenodd" d="M25.517 0C18.712 0 14.46 3.382 12.758 10.146c2.552-3.382 5.529-4.65 8.931-3.805 1.941.482 3.329 1.882 4.864 3.432 2.502 2.524 5.398 5.445 11.722 5.445 6.804 0 11.057-3.382 12.758-10.145-2.551 3.382-5.528 4.65-8.93 3.804-1.942-.482-3.33-1.882-4.865-3.431C34.736 2.92 31.841 0 25.517 0zM12.758 15.218C5.954 15.218 1.701 18.6 0 25.364c2.552-3.382 5.529-4.65 8.93-3.805 1.942.482 3.33 1.882 4.865 3.432 2.502 2.524 5.397 5.445 11.722 5.445 6.804 0 11.057-3.381 12.758-10.145-2.552 3.382-5.529 4.65-8.931 3.805-1.941-.483-3.329-1.883-4.864-3.432-2.502-2.524-5.398-5.446-11.722-5.446z" fill="#06B6D4" style="block-size:auto;clip-rule:evenodd;d:path(&quot;M 25.517 0 C 18.712 0 14.46 3.382 12.758 10.146 C 15.31 6.764 18.287 5.496 21.689 6.341 C 23.63 6.823 25.018 8.223 26.553 9.773 C 29.055 12.297 31.951 15.218 38.275 15.218 C 45.079 15.218 49.332 11.836 51.033 5.073 C 48.482 8.455 45.505 9.723 42.103 8.877 C 40.161 8.395 38.773 6.995 37.238 5.446 C 34.736 2.92 31.841 0 25.517 0 Z M 12.758 15.218 C 5.954 15.218 1.701 18.6 0 25.364 C 2.552 21.982 5.529 20.714 8.93 21.559 C 10.872 22.041 12.26 23.441 13.795 24.991 C 16.297 27.515 19.192 30.436 25.517 30.436 C 32.321 30.436 36.574 27.055 38.275 20.291 C 35.723 23.673 32.746 24.941 29.344 24.096 C 27.403 23.613 26.015 22.213 24.48 20.664 C 21.978 18.14 19.082 15.218 12.758 15.218 Z&quot;);display:inline;fill:rgb(6, 182, 212);fill-rule:evenodd;height:auto;inline-size:auto;overflow-x:visible;overflow-y:visible;perspective-origin:0px 0px;transform-origin:0px 0px;vertical-align:baseline;width:auto;"/><path fill-rule="evenodd" clip-rule="evenodd" d="M76.546 12.825h-4.453v8.567c0 2.285 1.508 2.249 4.453 2.106v3.463c-5.962.714-8.332-.928-8.332-5.569v-8.567H64.91V9.112h3.304V4.318l3.879-1.143v5.937h4.453v3.713zM93.52 9.112h3.878v17.849h-3.878v-2.57c-1.365 1.891-3.484 3.034-6.285 3.034-4.884 0-8.942-4.105-8.942-9.389 0-5.318 4.058-9.388 8.942-9.388 2.801 0 4.92 1.142 6.285 2.999V9.112zm-5.674 14.636c3.232 0 5.674-2.392 5.674-5.712s-2.442-5.711-5.674-5.711-5.674 2.392-5.674 5.711c0 3.32 2.442 5.712 5.674 5.712zm16.016-17.313c-1.364 0-2.477-1.142-2.477-2.463a2.475 2.475 0 012.477-2.463 2.475 2.475 0 012.478 2.463c0 1.32-1.113 2.463-2.478 2.463zm-1.939 20.526V9.112h3.879v17.849h-3.879zm8.368 0V.9h3.878v26.06h-3.878zm29.053-17.849h4.094l-5.638 17.849h-3.807l-3.735-12.03-3.771 12.03h-3.806l-5.639-17.849h4.094l3.484 12.315 3.771-12.315h3.699l3.734 12.315 3.52-12.315zm8.906-2.677c-1.365 0-2.478-1.142-2.478-2.463a2.475 2.475 0 012.478-2.463 2.475 2.475 0 012.478 2.463c0 1.32-1.113 2.463-2.478 2.463zm-1.939 20.526V9.112h3.878v17.849h-3.878zm17.812-18.313c4.022 0 6.895 2.713 6.895 7.354V26.96h-3.878V16.394c0-2.713-1.58-4.14-4.022-4.14-2.55 0-4.561 1.499-4.561 5.14v9.567h-3.879V9.112h3.879v2.285c1.185-1.856 3.124-2.749 5.566-2.749zm25.282-6.675h3.879V26.96h-3.879v-2.57c-1.364 1.892-3.483 3.034-6.284 3.034-4.884 0-8.942-4.105-8.942-9.389 0-5.318 4.058-9.388 8.942-9.388 2.801 0 4.92 1.142 6.284 2.999V1.973zm-5.674 21.775c3.232 0 5.674-2.392 5.674-5.712s-2.442-5.711-5.674-5.711-5.674 2.392-5.674 5.711c0 3.32 2.442 5.712 5.674 5.712zm22.553 3.677c-5.423 0-9.481-4.105-9.481-9.389 0-5.318 4.058-9.388 9.481-9.388 3.519 0 6.572 1.82 8.008 4.605l-3.34 1.928c-.79-1.678-2.549-2.749-4.704-2.749-3.16 0-5.566 2.392-5.566 5.604 0 3.213 2.406 5.605 5.566 5.605 2.155 0 3.914-1.107 4.776-2.749l3.34 1.892c-1.508 2.82-4.561 4.64-8.08 4.64zm14.472-13.387c0 3.249 9.661 1.285 9.661 7.89 0 3.57-3.125 5.497-7.003 5.497-3.591 0-6.177-1.607-7.326-4.177l3.34-1.927c.574 1.606 2.011 2.57 3.986 2.57 1.724 0 3.052-.571 3.052-2 0-3.176-9.66-1.391-9.66-7.781 0-3.356 2.909-5.462 6.572-5.462 2.945 0 5.387 1.357 6.644 3.713l-3.268 1.82c-.647-1.392-1.904-2.035-3.376-2.035-1.401 0-2.622.607-2.622 1.892zm16.556 0c0 3.249 9.66 1.285 9.66 7.89 0 3.57-3.124 5.497-7.003 5.497-3.591 0-6.176-1.607-7.326-4.177l3.34-1.927c.575 1.606 2.011 2.57 3.986 2.57 1.724 0 3.053-.571 3.053-2 0-3.176-9.66-1.391-9.66-7.781 0-3.356 2.908-5.462 6.572-5.462 2.944 0 5.386 1.357 6.643 3.713l-3.268 1.82c-.646-1.392-1.903-2.035-3.375-2.035-1.401 0-2.622.607-2.622 1.892z" fill="#000" style="block-size:auto;clip-rule:evenodd;d:path(&quot;M 76.546 12.825 H 72.093 V 21.392 C 72.093 23.677 73.601 23.641 76.546 23.498 V 26.961 C 70.584 27.675 68.214 26.033 68.214 21.392 V 12.825 H 64.91 V 9.112 H 68.214 V 4.318 L 72.093 3.175 V 9.112 H 76.546 V 12.825 Z M 93.52 9.112 H 97.398 V 26.961 H 93.52 V 24.391 C 92.155 26.282 90.036 27.425 87.235 27.425 C 82.351 27.425 78.293 23.32 78.293 18.036 C 78.293 12.718 82.351 8.648 87.235 8.648 C 90.036 8.648 92.155 9.79 93.52 11.647 V 9.112 Z M 87.846 23.748 C 91.078 23.748 93.52 21.356 93.52 18.036 S 91.078 12.325 87.846 12.325 S 82.172 14.717 82.172 18.036 C 82.172 21.356 84.614 23.748 87.846 23.748 Z M 103.862 6.435 C 102.498 6.435 101.385 5.293 101.385 3.972 A 2.475 2.475 0 0 1 103.862 1.509 A 2.475 2.475 0 0 1 106.34 3.972 C 106.34 5.292 105.227 6.435 103.862 6.435 Z M 101.923 26.961 V 9.112 H 105.802 V 26.961 H 101.923 Z M 110.291 26.961 V 0.9 H 114.169 V 26.96 H 110.291 Z M 139.344 9.112 H 143.438 L 137.8 26.961 H 133.993 L 130.258 14.931 L 126.487 26.961 H 122.681 L 117.042 9.112 H 121.136 L 124.62 21.427 L 128.391 9.112 H 132.09 L 135.824 21.427 L 139.344 9.112 Z M 148.25 6.435 C 146.885 6.435 145.772 5.293 145.772 3.972 A 2.475 2.475 0 0 1 148.25 1.509 A 2.475 2.475 0 0 1 150.728 3.972 C 150.728 5.292 149.615 6.435 148.25 6.435 Z M 146.311 26.961 V 9.112 H 150.189 V 26.961 H 146.311 Z M 164.123 8.648 C 168.145 8.648 171.018 11.361 171.018 16.002 V 26.96 H 167.14 V 16.394 C 167.14 13.681 165.56 12.254 163.118 12.254 C 160.568 12.254 158.557 13.753 158.557 17.394 V 26.961 H 154.678 V 9.112 H 158.557 V 11.397 C 159.742 9.541 161.681 8.648 164.123 8.648 Z M 189.405 1.973 H 193.284 V 26.96 H 189.405 V 24.39 C 188.041 26.282 185.922 27.424 183.121 27.424 C 178.237 27.424 174.179 23.319 174.179 18.035 C 174.179 12.717 178.237 8.647 183.121 8.647 C 185.922 8.647 188.041 9.789 189.405 11.646 V 1.973 Z M 183.731 23.748 C 186.963 23.748 189.405 21.356 189.405 18.036 S 186.963 12.325 183.731 12.325 S 178.057 14.717 178.057 18.036 C 178.057 21.356 180.499 23.748 183.731 23.748 Z M 206.284 27.425 C 200.861 27.425 196.803 23.32 196.803 18.036 C 196.803 12.718 200.861 8.648 206.284 8.648 C 209.803 8.648 212.856 10.468 214.292 13.253 L 210.952 15.181 C 210.162 13.503 208.403 12.432 206.248 12.432 C 203.088 12.432 200.682 14.824 200.682 18.036 C 200.682 21.249 203.088 23.641 206.248 23.641 C 208.403 23.641 210.162 22.534 211.024 20.892 L 214.364 22.784 C 212.856 25.604 209.803 27.424 206.284 27.424 Z M 220.756 14.038 C 220.756 17.287 230.417 15.323 230.417 21.928 C 230.417 25.498 227.292 27.425 223.414 27.425 C 219.823 27.425 217.237 25.818 216.088 23.248 L 219.428 21.321 C 220.002 22.927 221.439 23.891 223.414 23.891 C 225.138 23.891 226.466 23.32 226.466 21.891 C 226.466 18.715 216.806 20.5 216.806 14.11 C 216.806 10.754 219.715 8.648 223.378 8.648 C 226.323 8.648 228.765 10.005 230.022 12.361 L 226.754 14.181 C 226.107 12.789 224.85 12.146 223.378 12.146 C 221.977 12.146 220.756 12.753 220.756 14.038 Z M 237.312 14.038 C 237.312 17.287 246.972 15.323 246.972 21.928 C 246.972 25.498 243.848 27.425 239.969 27.425 C 236.378 27.425 233.793 25.818 232.643 23.248 L 235.983 21.321 C 236.558 22.927 237.994 23.891 239.969 23.891 C 241.693 23.891 243.022 23.32 243.022 21.891 C 243.022 18.715 233.362 20.5 233.362 14.11 C 233.362 10.754 236.27 8.648 239.934 8.648 C 242.878 8.648 245.32 10.005 246.577 12.361 L 243.309 14.181 C 242.663 12.789 241.406 12.146 239.934 12.146 C 238.533 12.146 237.312 12.753 237.312 14.038 Z&quot;);display:inline;fill-rule:evenodd;height:auto;inline-size:auto;overflow-x:visible;overflow-y:visible;perspective-origin:0px 0px;transform-origin:0px 0px;vertical-align:baseline;width:auto;"/></svg>